# xmcd
#
# Track frame offsets:
#	150
#	11151
#	27811
#	38743
#	55636
#	71191
#	82381
#	95813
#	108546
#	122681
#
# Disc length: 1834 seconds
#
# Revision: 1
# Processed by: cddbd v1.4PL0 Copyright (c) Steve Scherf et al.
# Submitted via: audiograbber 1.81.03
#
DISCID=8907280a
DTITLE=Various Artist - Down Home Country Party
DYEAR=1900
DGENRE=
TTITLE0=Unbelievable
TTITLE1=That Don't Impress Me Much
TTITLE2=Crazy Little Thing Called Love
TTITLE3=Never Been Kissed
TTITLE4=I Just Want To Dance With You
TTITLE5=Chattahoochee
TTITLE6=Little Miss Honky Tonk
TTITLE7=Third Rock From The Son
TTITLE8=I Like It, I Love It
TTITLE9=Boot Scootin' Boogie
EXTD=
EXTT0=
EXTT1=
EXTT2=
EXTT3=
EXTT4=
EXTT5=
EXTT6=
EXTT7=
EXTT8=
EXTT9=
PLAYORDER=
